<?xml version="1.0" encoding="UTF-8"?>
<svg width="1200pt" height="1200pt" version="1.1" viewBox="0 0 1200 1200" xmlns="http://www.w3.org/2000/svg">
 <g>
  <path fill="#e3dac9" d="m623.35 600c0 12.898-10.453 23.352-23.352 23.352s-23.352-10.453-23.352-23.352 10.453-23.352 23.352-23.352 23.352 10.453 23.352 23.352"/>
  <path fill="#e3dac9" d="m600 96.227c-278.23 0-503.77 225.54-503.77 503.76 0 278.24 225.55 503.79 503.77 503.79 278.22 0 503.79-225.55 503.79-503.79 0-278.23-225.55-503.76-503.79-503.76zm-123.72 962.27c-71.965-17.363-148.89-78.18-148.89-78.18l167.52-234.53c38.461 37.246 109.19 37.246 109.19 37.246l19.859 285.37s-75.695 7.4531-147.67-9.9102zm123.72-309.6c-82.234 0-148.89-66.672-148.89-148.91s66.672-148.89 148.89-148.89c82.246 0 148.89 66.672 148.89 148.89 0 82.246-66.648 148.91-148.89 148.91zm109.2-292.84c-38.461-37.223-109.2-37.223-109.2-37.223l-19.848-285.39s75.695-7.4414 147.66 9.9258c71.977 17.375 148.89 78.18 148.89 78.18z"/>
 </g>
</svg>
