<svg width="381" height="325" viewBox="0 0 381 325" fill="none" xmlns="http://www.w3.org/2000/svg">
<path d="M8.39621 173.521C8.39621 173.521 9.93673 176.445 8.57013 179.187C7.20354 181.928 5.48081 184.678 6.50782 186.053C7.53484 187.428 10.649 189.142 10.2846 192.057C9.92016 194.973 5.82038 200.812 8.39621 204.075C10.972 207.338 15.2623 207.165 15.4362 210.767C15.6102 214.37 11.295 217.286 12.5126 220.549C13.7301 223.812 20.7949 224.5 20.7949 226.728C20.7949 228.956 18.0452 231.366 20.2814 233.768C22.5177 236.169 33.3013 242.439 34.8087 239.863C36.3161 237.288 39.4634 230.165 37.4177 220.052C37.0698 218.354 34.6514 217.973 34.3118 215.571C33.9722 213.169 34.9992 208.879 33.2848 206.461C31.5703 204.042 26.0708 203.197 25.7312 201.309C25.3917 199.421 27.7853 194.791 25.3834 191.875C22.9815 188.96 17.3163 187.602 17.3163 185.697C17.3163 183.792 19.0391 181.406 16.6372 178.83C14.2353 176.255 8.39621 173.521 8.39621 173.521Z" fill="black"/>
<path d="M16.6123 193.747C20.1903 204.514 26.4518 219.149 28.9945 226.214C32.0838 234.795 34.7921 241.006 36.1422 249.587C37.4922 258.167 38.2707 315.639 38.2707 315.639" stroke="black" stroke-linecap="round" stroke-linejoin="round"/>
<path d="M9.28247 174.558C9.28247 174.558 12.1979 176.96 14.7737 187.428C14.9393 188.099 15.1298 188.812 15.3369 189.565" stroke="black" stroke-linecap="round" stroke-linejoin="round"/>
<path d="M62.0411 193.077C61.6919 193.779 61.4992 194.548 61.4763 195.332C61.4534 196.116 61.6009 196.895 61.9086 197.616C63.0019 199.811 64.3933 202.006 63.5651 203.107C62.7368 204.209 60.2521 205.592 60.542 207.911C60.8319 210.23 64.1117 214.918 62.0494 217.527C59.9871 220.136 56.5582 220.011 56.4174 222.885C56.2766 225.759 59.7303 228.103 58.753 230.712C57.7757 233.321 52.1271 233.876 52.1271 235.682C52.1271 237.487 54.3302 239.392 52.5412 241.314C50.7522 243.235 42.1385 248.23 40.9044 246.159C39.6704 244.088 37.1857 238.398 38.8173 230.306C39.0906 228.948 41.0287 228.65 41.302 226.72C41.5753 224.79 40.7554 221.361 42.1302 219.44C43.5051 217.518 47.9279 216.831 48.1681 215.299C48.4083 213.767 46.5116 210.081 48.4414 207.745C50.3712 205.41 54.9017 204.308 54.9017 202.776C54.9017 201.244 53.5268 199.339 55.4483 197.276C57.3698 195.214 62.0411 193.077 62.0411 193.077Z" fill="black"/>
<path d="M55.4649 209.261C52.6075 217.899 47.5966 229.594 45.526 235.243C43.0413 242.117 40.9044 247.086 39.8112 253.952C38.7179 260.819 38.1133 306.811 38.1133 306.811" stroke="black" stroke-linecap="round" stroke-linejoin="round"/>
<path d="M61.3537 193.905C61.3537 193.905 59.0181 195.827 56.9641 204.209C56.8316 204.747 56.6742 205.318 56.5085 205.915" stroke="black" stroke-linecap="round" stroke-linejoin="round"/>
<path d="M14.8151 231.971C15.1058 232.556 15.2667 233.197 15.2867 233.851C15.3067 234.504 15.1854 235.154 14.9311 235.756C14.0117 237.594 12.8605 239.425 13.5479 240.344C14.2353 241.264 16.3059 242.415 16.074 244.361C15.8421 246.308 13.0924 250.217 14.8151 252.395C16.5378 254.573 19.4035 254.457 19.5195 256.868C19.6354 259.278 16.7366 261.232 17.5648 263.411C18.3931 265.589 23.0726 266.053 23.0726 267.552C23.0726 269.051 21.2422 270.649 22.7331 272.256C24.2239 273.863 31.4378 278.054 32.4731 276.331C33.5084 274.608 35.5873 269.846 34.2124 263.079C33.9888 261.945 32.3738 261.688 32.1418 260.081C31.9099 258.474 32.5974 255.609 31.4544 254.002C30.3114 252.395 26.6341 251.824 26.4022 250.556C26.1702 249.289 27.777 246.2 26.1702 244.245C24.5635 242.291 20.7784 241.38 20.7784 240.104C20.7784 238.829 21.9297 237.23 20.3229 235.507C18.7161 233.785 14.8151 231.971 14.8151 231.971Z" fill="black"/>
<path d="M20.3062 245.496C22.6998 252.71 26.8824 262.475 28.5885 267.196C30.6591 272.936 32.4564 277.135 33.3675 282.825C34.2785 288.515 34.792 309.859 34.792 309.859" stroke="black" stroke-linecap="round" stroke-linejoin="round"/>
<path d="M15.3865 232.658C15.3865 232.658 17.3411 234.265 19.0556 241.264C19.1715 241.719 19.2958 242.191 19.4366 242.688" stroke="black" stroke-linecap="round" stroke-linejoin="round"/>
<path d="M73.8851 229.113C73.4666 229.616 73.1624 230.204 72.9937 230.836C72.8249 231.468 72.7956 232.13 72.9077 232.774C73.3798 234.77 74.0838 236.816 73.1976 237.553C72.3114 238.29 70.0503 238.936 69.8267 240.866C69.6031 242.796 71.3921 247.243 69.2138 248.974C67.0355 250.705 64.2444 249.927 63.6066 252.287C62.9689 254.648 65.2631 257.157 64.0125 259.096C62.7618 261.034 58.0491 260.404 57.7013 261.862C57.3534 263.32 58.7863 265.291 56.9642 266.517C55.142 267.742 47.1909 270.177 46.5532 268.248C45.9154 266.318 45.0127 261.224 47.8867 254.954C48.3753 253.902 50.0069 254.027 50.595 252.511C51.183 250.995 51.1748 248.055 52.6573 246.755C54.1399 245.454 57.8504 245.728 58.3639 244.552C58.8774 243.376 58.016 239.996 60.0204 238.464C62.0247 236.932 65.9257 236.907 66.2156 235.673C66.5055 234.439 65.7518 232.625 67.7147 231.316C69.6776 230.008 73.8851 229.113 73.8851 229.113Z" fill="black"/>
<path d="M65.4785 241.016C61.5029 247.492 55.1917 256.048 52.4585 260.256C49.1456 265.366 45.1452 268.637 44.2259 274.377C43.3065 280.117 42.8096 301.411 42.8096 301.411" stroke="black" stroke-linecap="round" stroke-linejoin="round"/>
<path d="M73.2059 229.652C73.2059 229.652 70.9365 230.77 67.6649 237.189C67.4496 237.603 67.2177 238.018 66.9609 238.49" stroke="black" stroke-linecap="round" stroke-linejoin="round"/>
<path d="M33.1606 322.108H45.9237C52.6407 318.646 57.4114 309.883 57.4114 299.605C57.5205 293.442 55.6382 287.409 52.0444 282.402H27.0399C23.4578 287.413 21.5872 293.446 21.706 299.605C21.706 309.883 26.4435 318.646 33.1606 322.108Z" fill="#FAF6FE" stroke="black" stroke-linecap="round" stroke-linejoin="round"/>
<path d="M46.1557 322.108H33.1606V324.013H46.1557V322.108Z" fill="#FAF6FE" stroke="black" stroke-linecap="round" stroke-linejoin="round"/>
<path d="M223.283 1H19.8342V154.986H223.283V1Z" stroke="black" stroke-linecap="round" stroke-linejoin="round"/>
<path d="M218.529 5.08301H24.5801V150.911H218.529V5.08301Z" stroke="black" stroke-linecap="round" stroke-linejoin="round"/>
<path d="M83.6996 26.4848C83.6996 26.4848 52.0112 24.1906 49.3443 29.16C46.6774 34.1294 48.574 124.987 50.1063 126.13C51.6385 127.273 94.3922 128.035 98.5914 126.511C102.791 124.987 97.0757 32.5889 97.0757 29.9137C97.0757 27.2385 87.1368 26.0955 87.1368 26.0955" stroke="black" stroke-linecap="round" stroke-linejoin="round"/>
<path d="M52.616 101.689C52.6822 113.665 52.939 122.444 53.5436 122.685C55.4485 123.447 95.9163 126.884 97.0593 123.066C98.2022 119.247 94.003 32.9697 94.003 32.9697" stroke="black" stroke-linecap="round" stroke-linejoin="round"/>
<path d="M92.4791 32.5888C92.4791 32.5888 53.9246 31.0649 53.5519 32.9698C53.3035 34.1873 52.5995 69.959 52.6077 95.9657" stroke="black" stroke-linecap="round" stroke-linejoin="round"/>
<path d="M54.6865 39.4639H92.0981" stroke="black" stroke-linecap="round" stroke-linejoin="round"/>
<path d="M75.3015 45.9482H56.5916V65.4201H75.3015V45.9482Z" stroke="black" stroke-linecap="round" stroke-linejoin="round"/>
<path d="M91.4272 105.507H77.1235V120.399H91.4272V105.507Z" stroke="black" stroke-linecap="round" stroke-linejoin="round"/>
<path d="M56.2104 72.6758H92.86" stroke="black" stroke-linecap="round" stroke-linejoin="round"/>
<path d="M55.8296 76.1133L92.0982 76.4943" stroke="black" stroke-linecap="round" stroke-linejoin="round"/>
<path d="M79.1196 47.0996H90.9552" stroke="black" stroke-linecap="round" stroke-linejoin="round"/>
<path d="M79.1196 51.6807H90.9552" stroke="black" stroke-linecap="round" stroke-linejoin="round"/>
<path d="M79.1196 56.2598H90.9552" stroke="black" stroke-linecap="round" stroke-linejoin="round"/>
<path d="M79.1196 60.8398H90.9552" stroke="black" stroke-linecap="round" stroke-linejoin="round"/>
<path d="M92.0981 78.3994H56.5916V95.5771H92.0981V78.3994Z" stroke="black" stroke-linecap="round" stroke-linejoin="round"/>
<path d="M58.1238 100.165H90.9552" stroke="black" stroke-linecap="round" stroke-linejoin="round"/>
<path d="M57.3618 104.364H68.0461" stroke="black" stroke-linecap="round" stroke-linejoin="round"/>
<path d="M98.5913 34.883L124.797 31.6611" stroke="black" stroke-linecap="round" stroke-linejoin="round"/>
<path d="M94.3923 53.585H121.873" stroke="black" stroke-linecap="round" stroke-linejoin="round"/>
<path d="M50.8682 88.3301L39.0327 92.5292" stroke="black" stroke-linecap="round" stroke-linejoin="round"/>
<path d="M84.4616 123.065C84.4616 123.065 82.1757 134.901 97.8211 137.974" stroke="black" stroke-linecap="round" stroke-linejoin="round"/>
<path d="M95.5352 134.901L99.3534 138.339L94.0029 139.863" stroke="black" stroke-linecap="round" stroke-linejoin="round"/>
<path d="M118.436 50.1475L124.548 53.9656L119.206 56.2599" stroke="black" stroke-linecap="round" stroke-linejoin="round"/>
<path d="M119.836 30.5186L126.321 31.2805L121.741 35.4797" stroke="black" stroke-linecap="round" stroke-linejoin="round"/>
<path d="M40.5566 88.7109L34.0715 94.0531L42.0889 94.4341" stroke="black" stroke-linecap="round" stroke-linejoin="round"/>
<path d="M140.964 50.1475H126.453V65.4202H140.964V50.1475Z" fill="black"/>
<path d="M129.891 53.585L138.289 53.9659" stroke="black" stroke-width="2" stroke-linecap="round" stroke-linejoin="round"/>
<path d="M129.891 56.6406L138.289 57.0216" stroke="black" stroke-width="2" stroke-linecap="round" stroke-linejoin="round"/>
<path d="M129.891 59.6973L138.289 60.0783" stroke="black" stroke-width="2" stroke-linecap="round" stroke-linejoin="round"/>
<path d="M117.888 70.7253L103.478 72.4258L105.267 87.5933L119.678 85.8927L117.888 70.7253Z" fill="black"/>
<path d="M107.288 75.4425L115.67 74.8379" stroke="black" stroke-width="2" stroke-linecap="round" stroke-linejoin="round"/>
<path d="M107.644 78.4728L116.026 77.8682" stroke="black" stroke-width="2" stroke-linecap="round" stroke-linejoin="round"/>
<path d="M108 81.505L116.39 80.9004" stroke="black" stroke-width="2" stroke-linecap="round" stroke-linejoin="round"/>
<path d="M42.691 96.6862L28.2803 98.3867L30.0701 113.554L44.4808 111.854L42.691 96.6862Z" fill="black"/>
<path d="M32.0757 101.4L40.4657 100.795" stroke="black" stroke-width="2" stroke-linecap="round" stroke-linejoin="round"/>
<path d="M32.4316 104.439L40.8217 103.834" stroke="black" stroke-width="2" stroke-linecap="round" stroke-linejoin="round"/>
<path d="M32.7961 107.47L41.1779 106.865" stroke="black" stroke-width="2" stroke-linecap="round" stroke-linejoin="round"/>
<path d="M117.671 128.462L103.241 126.928L101.626 142.115L116.056 143.649L117.671 128.462Z" fill="black"/>
<path d="M106.311 130.702L114.618 131.969" stroke="black" stroke-width="2" stroke-linecap="round" stroke-linejoin="round"/>
<path d="M105.988 133.741L114.295 135.008" stroke="black" stroke-width="2" stroke-linecap="round" stroke-linejoin="round"/>
<path d="M105.665 136.782L113.972 138.049" stroke="black" stroke-width="2" stroke-linecap="round" stroke-linejoin="round"/>
<path d="M223.274 154.986H19.8342V160.188H223.274V154.986Z" fill="black" stroke="black" stroke-linecap="round" stroke-linejoin="round"/>
<path d="M304.914 192.266V182.559H275.702V192.266C275.699 195.446 274.603 198.528 272.596 200.995L271.321 202.577H309.295L308.02 200.995C306.014 198.528 304.917 195.446 304.914 192.266Z" fill="black" stroke="black" stroke-linecap="round" stroke-linejoin="round"/>
<path d="M303.258 192.266V182.559H274.046V192.266C274.043 195.446 272.946 198.528 270.94 200.995L269.664 202.577H307.639L306.363 200.995C304.357 198.528 303.26 195.446 303.258 192.266Z" fill="#FAF6FE" stroke="black" stroke-linecap="round" stroke-linejoin="round"/>
<path d="M303.49 185.3H274.162V188.273H303.49V185.3Z" fill="black"/>
<path d="M340.33 99.4033H236.965C233.086 99.4033 229.942 102.548 229.942 106.427V178.591C229.942 182.47 233.086 185.615 236.965 185.615H340.33C344.208 185.615 347.353 182.47 347.353 178.591V106.427C347.353 102.548 344.208 99.4033 340.33 99.4033Z" fill="black" stroke="black" stroke-linecap="round" stroke-linejoin="round"/>
<path d="M343.485 99.4033H240.121C236.242 99.4033 233.097 102.548 233.097 106.427V178.591C233.097 182.47 236.242 185.615 240.121 185.615H343.485C347.364 185.615 350.509 182.47 350.509 178.591V106.427C350.509 102.548 347.364 99.4033 343.485 99.4033Z" fill="black" stroke="black" stroke-linecap="round" stroke-linejoin="round"/>
<path d="M229.942 172.214H347.361V178.591C347.361 180.454 346.621 182.24 345.304 183.558C343.987 184.875 342.201 185.615 340.338 185.615H236.974C235.111 185.615 233.324 184.875 232.007 183.558C230.69 182.24 229.95 180.454 229.95 178.591V172.214H229.942Z" fill="#FAF6FE" stroke="black" stroke-linecap="round" stroke-linejoin="round"/>
<path d="M341.448 104.771H235.847V165.679H341.448V104.771Z" fill="#FAF6FE"/>
<path d="M272.596 111.114H251.824C250.433 111.114 249.306 112.242 249.306 113.632V156.535C249.306 157.925 250.433 159.053 251.824 159.053H272.596C273.987 159.053 275.114 157.925 275.114 156.535V113.632C275.114 112.242 273.987 111.114 272.596 111.114Z" fill="black"/>
<path d="M272.952 115.132H251.476V155.02H272.952V115.132Z" fill="#FAF6FE"/>
<path d="M301.262 115.803H281.823V117.815H301.262V115.803Z" fill="black"/>
<path d="M291.215 120.168H282.162V129.552H291.215V120.168Z" fill="black"/>
<path d="M299.92 148.99H295.075V154.018H299.92V148.99Z" fill="black"/>
<path d="M300.823 136.252H282.386V145.636H300.823V136.252Z" fill="black"/>
<path d="M292.888 120.838H300.259" stroke="black" stroke-linecap="round" stroke-linejoin="round"/>
<path d="M292.888 123.182H300.259" stroke="black" stroke-linecap="round" stroke-linejoin="round"/>
<path d="M292.888 125.526H300.259" stroke="black" stroke-linecap="round" stroke-linejoin="round"/>
<path d="M292.888 127.87H300.259" stroke="black" stroke-linecap="round" stroke-linejoin="round"/>
<path d="M282.717 133.236H300.483" stroke="black" stroke-linecap="round" stroke-linejoin="round"/>
<path d="M282.717 147.988H300.483" stroke="black" stroke-linecap="round" stroke-linejoin="round"/>
<path d="M302.943 113.798H280.15V156.038H302.943V113.798Z" stroke="black" stroke-linecap="round" stroke-linejoin="round"/>
<path d="M330.763 113.798H309.312V129.551H330.763V113.798Z" fill="black"/>
<path d="M330.763 113.798H309.312V117.152H330.763V113.798Z" fill="black"/>
<path d="M316.584 119.588H310.977V125.013H316.584V119.588Z" stroke="black" stroke-linecap="round" stroke-linejoin="round"/>
<path d="M327.798 119.588H322.191V125.013H327.798V119.588Z" stroke="black" stroke-linecap="round" stroke-linejoin="round"/>
<path d="M328.701 115.703C328.701 115.867 328.652 116.027 328.561 116.163C328.47 116.3 328.341 116.406 328.19 116.468C328.038 116.531 327.872 116.548 327.711 116.516C327.551 116.484 327.403 116.405 327.287 116.289C327.171 116.173 327.092 116.025 327.06 115.865C327.029 115.704 327.045 115.538 327.108 115.386C327.17 115.235 327.276 115.106 327.413 115.015C327.549 114.924 327.709 114.875 327.873 114.875C328.092 114.875 328.303 114.962 328.458 115.118C328.614 115.273 328.701 115.484 328.701 115.703Z" fill="#FAF6FE"/>
<path d="M323.997 116.515C324.445 116.515 324.808 116.152 324.808 115.703C324.808 115.255 324.445 114.892 323.997 114.892C323.548 114.892 323.185 115.255 323.185 115.703C323.185 116.152 323.548 116.515 323.997 116.515Z" fill="#FAF6FE"/>
<path d="M329.049 138.09H312.625V150.157H329.049V138.09Z" fill="black"/>
<path d="M329.049 138.09H312.625V140.657H329.049V138.09Z" fill="black"/>
<path d="M327.475 139.548C327.477 139.673 327.441 139.795 327.373 139.9C327.305 140.004 327.207 140.086 327.093 140.135C326.978 140.184 326.851 140.198 326.728 140.175C326.606 140.151 326.493 140.092 326.404 140.004C326.315 139.917 326.254 139.804 326.229 139.682C326.204 139.56 326.216 139.433 326.264 139.317C326.311 139.202 326.392 139.103 326.495 139.033C326.599 138.964 326.721 138.927 326.846 138.927C327.011 138.927 327.17 138.992 327.288 139.108C327.406 139.224 327.473 139.382 327.475 139.548Z" fill="#FAF6FE"/>
<path d="M324.494 139.548C324.494 139.713 324.428 139.871 324.312 139.987C324.195 140.104 324.037 140.169 323.872 140.169C323.708 140.169 323.55 140.104 323.433 139.987C323.317 139.871 323.251 139.713 323.251 139.548C323.251 139.383 323.317 139.225 323.433 139.109C323.55 138.992 323.708 138.927 323.872 138.927C324.037 138.927 324.195 138.992 324.312 139.109C324.428 139.225 324.494 139.383 324.494 139.548Z" fill="#FAF6FE"/>
<path d="M246.225 107.967H239.326V162.076H246.225V107.967Z" fill="black"/>
<path d="M246.225 107.967H239.326V110.452H246.225V107.967Z" fill="black"/>
<path d="M244.295 112.108H240.982V115.976H244.295V112.108Z" stroke="black" stroke-linecap="round" stroke-linejoin="round"/>
<path d="M244.295 118.453H240.982V122.321H244.295V118.453Z" stroke="black" stroke-linecap="round" stroke-linejoin="round"/>
<path d="M244.295 124.806H240.982V128.674H244.295V124.806Z" stroke="black" stroke-linecap="round" stroke-linejoin="round"/>
<path d="M244.295 131.158H240.982V135.026H244.295V131.158Z" stroke="black" stroke-linecap="round" stroke-linejoin="round"/>
<path d="M244.295 137.502H240.982V141.37H244.295V137.502Z" stroke="black" stroke-linecap="round" stroke-linejoin="round"/>
<path d="M244.295 143.854H240.982V147.722H244.295V143.854Z" stroke="black" stroke-linecap="round" stroke-linejoin="round"/>
<path d="M244.295 150.207H240.982V154.075H244.295V150.207Z" stroke="black" stroke-linecap="round" stroke-linejoin="round"/>
<path d="M244.295 156.552H240.982V160.42H244.295V156.552Z" stroke="black" stroke-linecap="round" stroke-linejoin="round"/>
<path d="M338.441 107.412H250.648V109.624H338.441V107.412Z" fill="black"/>
<path d="M338.441 160.975H250.648V163.186H338.441V160.975Z" fill="black"/>
<path d="M307.647 202.577H269.664V204.308H307.647V202.577Z" fill="black" stroke="black" stroke-linecap="round" stroke-linejoin="round"/>
<path d="M332.478 201.161H244.295V204.308H332.478V201.161Z" fill="#FAF6FE" stroke="black" stroke-linecap="round" stroke-linejoin="round"/>
<path d="M165.273 324.012H161.686L159.889 214.13H167.07L165.273 324.012Z" fill="#FAF6FE" stroke="black" stroke-linecap="round" stroke-linejoin="round"/>
<path d="M165.273 324.012H163.691L163.906 214.13H167.07L165.273 324.012Z" fill="black" stroke="black" stroke-linecap="round" stroke-linejoin="round"/>
<path d="M198.096 324.012H194.501L192.712 214.13H199.885L198.096 324.012Z" fill="black" stroke="black" stroke-linecap="round" stroke-linejoin="round"/>
<path d="M198.096 324.012H196.514L196.721 214.13H199.885L198.096 324.012Z" fill="black" stroke="black" stroke-linecap="round" stroke-linejoin="round"/>
<path d="M232.642 324.012H229.047L227.258 214.13H234.431L232.642 324.012Z" fill="black" stroke="black" stroke-linecap="round" stroke-linejoin="round"/>
<path d="M232.642 324.012H231.052L231.267 214.13H234.431L232.642 324.012Z" fill="black" stroke="black" stroke-linecap="round" stroke-linejoin="round"/>
<path d="M333.505 324.012H329.918L328.121 214.13H335.302L333.505 324.012Z" fill="#FAF6FE" stroke="black" stroke-linecap="round" stroke-linejoin="round"/>
<path d="M333.505 324.012H331.923L332.138 214.13H335.302L333.505 324.012Z" fill="black" stroke="black" stroke-linecap="round" stroke-linejoin="round"/>
<path d="M366.328 324.012H362.733L360.944 214.13H368.117L366.328 324.012Z" fill="black" stroke="black" stroke-linecap="round" stroke-linejoin="round"/>
<path d="M366.328 324.012H364.746L364.953 214.13H368.117L366.328 324.012Z" fill="black" stroke="black" stroke-linecap="round" stroke-linejoin="round"/>
<path d="M370.386 209.989H155.16V217.551H370.386V209.989Z" fill="#FAF6FE" stroke="black" stroke-linecap="round" stroke-linejoin="round"/>
<path d="M370.386 209.989H155.16V213.766H370.386V209.989Z" fill="black" stroke="black" stroke-linecap="round" stroke-linejoin="round"/>
<path d="M370.386 209.989H338.615V217.551H370.386V209.989Z" fill="black" stroke="black" stroke-linecap="round" stroke-linejoin="round"/>
<path d="M377.343 203.918H149.321V211.48H377.343V203.918Z" fill="#FAF6FE" stroke="black" stroke-linecap="round" stroke-linejoin="round"/>
<path d="M377.343 203.918H345.572V211.48H377.343V203.918Z" fill="black" stroke="black" stroke-linecap="round" stroke-linejoin="round"/>
<path d="M197.085 231.938H186.318V235.665H197.085V231.938Z" fill="black" stroke="black" stroke-linecap="round" stroke-linejoin="round"/>
<path d="M197.085 262.168H186.318V265.895H197.085V262.168Z" fill="black" stroke="black" stroke-linecap="round" stroke-linejoin="round"/>
<path d="M188.803 299.306L190.667 309.038C190.667 309.038 189.01 312.558 182.591 315.457C176.172 318.356 173.067 319.598 173.067 320.427C173.067 321.255 172.652 323.118 174.309 323.739C175.965 324.361 211.166 323.739 211.166 323.739C211.166 323.739 213.029 322.911 213.029 318.977C213.029 315.043 211.373 307.796 211.373 306.139C211.373 304.483 210.205 300.491 210.205 299.928C210.205 299.364 196.05 300.135 196.05 300.135C196.05 300.135 191.909 296.201 188.803 299.306Z" fill="black" stroke="black" stroke-linecap="round" stroke-linejoin="round"/>
<path d="M196.05 300.136C196.05 300.136 197.085 309.453 197.707 310.075C198.328 310.696 211.372 310.696 211.372 310.696" fill="#0A0A0A"/>
<path d="M196.05 300.136C196.05 300.136 197.085 309.453 197.707 310.075C198.328 310.696 211.372 310.696 211.372 310.696" stroke="black" stroke-linecap="round" stroke-linejoin="round"/>
<path d="M211.373 306.141L196.878 306.348" stroke="black" stroke-linecap="round" stroke-linejoin="round"/>
<path d="M173.066 322.084H212.615" stroke="black" stroke-linecap="round" stroke-linejoin="round"/>
<path d="M214.685 182.592C214.685 182.592 203.206 221.237 201.798 226.563C200.39 231.889 208.523 278.651 208.523 279.487C208.523 280.324 209.642 282.85 209.642 285.65C209.642 288.449 208.523 289.285 209.087 290.13C209.65 290.975 211.571 292.93 211.323 294.611C211.237 295.907 210.641 297.116 209.666 297.974C209.049 298.619 208.28 299.1 207.43 299.373H200.705C200.705 299.373 199.048 286.768 194.543 253.448C190.037 220.128 197.35 201.078 198.75 194.916C199.703 190.941 201.112 187.089 202.949 183.437L214.685 182.592Z" fill="#FAF6FE" stroke="black" stroke-linecap="round" stroke-linejoin="round"/>
<path d="M179.278 299.306L181.142 309.038C181.142 309.038 179.485 312.558 173.066 315.457C166.648 318.356 163.542 319.598 163.542 320.427C163.542 321.255 163.127 323.118 164.784 323.739C166.44 324.361 201.641 323.739 201.641 323.739C201.641 323.739 203.504 322.911 203.504 318.977C203.504 315.043 201.848 307.796 201.848 306.139C201.848 304.483 200.68 300.491 200.68 299.928C200.68 299.364 186.525 300.135 186.525 300.135C186.525 300.135 182.384 296.201 179.278 299.306Z" fill="black" stroke="black" stroke-linecap="round" stroke-linejoin="round"/>
<path d="M186.525 300.136C186.525 300.136 187.561 309.453 188.182 310.075C188.803 310.696 201.848 310.696 201.848 310.696" fill="#0A0A0A"/>
<path d="M186.525 300.136C186.525 300.136 187.561 309.453 188.182 310.075C188.803 310.696 201.848 310.696 201.848 310.696" stroke="black" stroke-linecap="round" stroke-linejoin="round"/>
<path d="M201.848 306.141L187.354 306.348" stroke="black" stroke-linecap="round" stroke-linejoin="round"/>
<path d="M163.542 322.084H203.09" stroke="black" stroke-linecap="round" stroke-linejoin="round"/>
<path d="M168.478 182.592C168.478 182.592 168.196 206.959 169.596 217.32C170.996 227.681 176.321 251.766 177.158 264.927C177.994 278.088 179.402 284.258 179.402 284.258C179.402 284.258 177.415 285.915 177.415 287.571C177.415 289.228 178.533 289.228 178.243 291.778C177.953 294.329 176.843 295.133 177.688 296.259C178.533 297.386 179.088 299.614 181.887 300.177C184.687 300.74 197.847 300.458 200.647 299.895C203.446 299.332 204.846 296.533 204.846 294.296C204.846 292.06 204.018 290.379 204.018 287.853C204.018 285.327 205.417 283.099 205.417 281.417C205.417 279.736 204.854 278.891 204.854 277.21C204.854 275.528 201.218 248.652 201.218 243.053C201.218 237.454 200.937 218.405 201.773 213.642C202.61 208.88 206.817 186.203 206.817 186.203L168.478 182.592Z" fill="#FAF6FE" stroke="black" stroke-linecap="round" stroke-linejoin="round"/>
<path d="M132.309 24.3146L131.886 41.5089L148.103 41.3681L148.244 24.1738L132.309 24.3146Z" fill="black"/>
<path d="M150.762 56.0448C150.762 56.0448 147.267 52.5496 145.726 49.336C144.186 46.1225 141.958 44.1678 141.958 41.9316C141.958 39.6953 142.935 34.4774 142.513 32.4234C142.09 30.3694 142.513 25.9963 143.912 25.9963C144.237 25.9963 144.558 26.0698 144.851 26.2115C145.143 26.3531 145.4 26.5592 145.602 26.8141C145.803 27.0691 145.945 27.3665 146.015 27.6838C146.085 28.0012 146.083 28.3303 146.008 28.6466C145.726 30.0464 146.836 34.9413 146.836 34.9413C146.836 34.9413 147.954 25.5739 148.095 25.0024C148.236 24.4309 150.19 24.4392 151.035 24.8616C151.88 25.284 152.849 25.1349 152.849 26.957C152.849 28.7792 152.427 30.8663 152.427 31.2887C152.427 31.7111 156.344 33.9474 156.485 35.6204C156.626 37.2935 156.203 41.3518 155.226 43.0746C154.558 44.1168 154.002 45.2274 153.57 46.3875C153.429 46.9424 157.346 52.8146 157.346 52.8146L150.762 56.0448Z" fill="#FAF6FE" stroke="black" stroke-linecap="round" stroke-linejoin="round"/>
<path d="M157.28 50.1396L147.755 57.4199C147.755 57.4199 163.997 91.0215 164.56 92.1065C165.124 93.1915 176.876 100.513 176.876 100.513L194.518 78.6642C194.518 78.6642 172.395 71.6656 171.841 70.829C171.286 69.9925 157.28 50.1396 157.28 50.1396Z" fill="black" stroke="black" stroke-linecap="round" stroke-linejoin="round"/>
<path d="M168.511 173.622L167.683 186.667C167.683 186.667 178.45 191.222 190.045 191.015C201.641 190.808 217.17 186.253 217.17 186.253L219.448 173.415C219.448 173.415 191.495 175.693 183.005 174.864C174.516 174.036 168.511 173.622 168.511 173.622Z" fill="#FAF6FE" stroke="black" stroke-linecap="round" stroke-linejoin="round"/>
<path d="M175.965 92.4544C175.965 92.4544 173.778 106.682 171.5 116C169.222 125.318 165.621 183.702 165 186.186C164.379 188.671 172.445 189.965 181.97 190.172C191.495 190.379 213.65 191.621 217.377 190.172C221.104 188.722 224.624 186.652 224.624 184.374C224.624 182.096 224.831 158.921 224.831 152.088C224.831 145.255 220.864 100.737 219 92.4544C217.136 84.172 206.121 71.0351 205.5 69.9998C204.879 68.9645 204 67.4993 197 73.4993C192 79 188.336 83.1007 181.97 86.6567C179.608 88.1773 177.568 90.1471 175.965 92.4544Z" fill="black" stroke="black" stroke-linecap="round" stroke-linejoin="round"/>
<path d="M113.516 105.838C113.516 105.838 110.153 107.238 109.872 110.6C109.59 113.963 115.761 117.317 119.397 122.361C123.033 127.405 127.795 132.69 127.795 132.69L135.083 142.769L143.763 135.489L121.36 109.499C121.36 109.499 122.478 107.014 121.078 106.136C119.9 105.588 118.625 105.28 117.327 105.228C116.029 105.177 114.733 105.384 113.516 105.838Z" fill="#FAF6FE" stroke="black" stroke-linecap="round" stroke-linejoin="round"/>
<path d="M114.079 113.682L139.316 105.275C139.316 105.275 140.972 112.282 148.551 119.563C153.094 123.94 157.965 127.966 163.119 131.605L140.434 144.484L114.079 113.682Z" fill="#FAF6FE" stroke="black" stroke-linecap="round" stroke-linejoin="round"/>
<path d="M114.079 113.682C115.191 112.435 115.876 110.865 116.034 109.201C116.109 108.433 115.896 107.664 115.438 107.043C114.979 106.422 114.306 105.993 113.549 105.839L138.471 98.5586C138.471 98.5586 143.233 100.215 139.299 105.276L114.079 113.682Z" fill="#FAF6FE" stroke="black" stroke-linecap="round" stroke-linejoin="round"/>
<path d="M147.474 140.31C147.474 140.31 141.875 139.481 141.593 137.825C141.312 136.168 140.194 132.508 139.109 131.108C138.024 129.708 132.665 126.909 130.984 124.946C129.302 122.983 128.184 120.183 127.066 120.465C125.948 120.747 124.267 121.865 124.822 122.95C125.377 124.035 127.903 128.839 127.903 128.839L128.466 130.793C128.466 130.793 123.422 129.965 122.585 129.675C122.341 129.606 122.084 129.597 121.836 129.651C121.588 129.704 121.357 129.818 121.163 129.981C120.97 130.145 120.819 130.353 120.725 130.589C120.63 130.824 120.595 131.079 120.622 131.331C120.622 132.731 119.504 132.731 120.904 133.568C122.304 134.404 123.985 135.531 123.985 135.531C123.985 135.531 125.948 140.011 126.47 140.848C126.992 141.684 131.514 143.656 132.35 144.211C133.187 144.766 137.676 146.174 139.912 146.695C142.148 147.217 147.192 149.221 147.192 149.221L148.592 142.778L147.474 140.31Z" fill="#FAF6FE" stroke="black" stroke-linecap="round" stroke-linejoin="round"/>
<path d="M206.842 101.665C206.842 101.665 206.279 125.469 206.279 126.587C206.279 127.705 207.107 150.672 204.622 152.626C202.138 154.581 189.78 157.107 171.857 156.552C153.934 155.997 146.091 152.072 146.091 152.072L147.491 140.311L181.655 137.826C181.655 137.826 178.019 111.786 178.574 102.825C179.129 93.863 186.418 89.1006 186.418 89.1006" fill="black"/>
<path d="M206.842 101.665C206.842 101.665 206.279 125.469 206.279 126.587C206.279 127.705 207.107 150.672 204.622 152.626C202.138 154.581 189.78 157.107 171.857 156.552C153.934 155.997 146.091 152.072 146.091 152.072L147.491 140.311L181.655 137.826C181.655 137.826 178.019 111.786 178.574 102.825C179.129 93.863 186.418 89.1006 186.418 89.1006" stroke="black" stroke-linecap="round" stroke-linejoin="round"/>
<path d="M169.132 157.596C169.132 157.596 203.04 158.78 204.829 154.614C206.618 150.448 206.61 109.4 206.61 109.4" stroke="#707070" stroke-linecap="round" stroke-linejoin="round"/>
<path d="M184.041 93.9287C184.041 93.9287 176.893 101.664 178.086 111.777C179.278 121.89 181.664 137.784 181.664 137.784L168.569 138.554" stroke="#707070" stroke-linecap="round" stroke-linejoin="round"/>
<path d="M169.571 29.259C169.571 29.259 164.875 37.384 165.778 38.4607C166.681 39.5374 165.96 41.5335 165.96 41.5335C165.96 41.5335 161.264 45.1446 161.629 46.4036C161.993 47.6625 165.77 51.0997 165.77 51.0997C165.77 51.0997 166.49 60.848 167.426 61.7508C168.362 62.6536 174.466 63.7303 175.709 63.9125C176.394 63.9973 177.064 64.1814 177.696 64.4591L187 81L203.717 68.7788L198.27 57.063C198.27 57.063 196.464 45.4676 196.613 40.1006C196.762 34.7337 187.403 28.1823 181.813 26.5589C176.222 24.9356 169.571 29.259 169.571 29.259Z" fill="#FAF6FE" stroke="black" stroke-linecap="round" stroke-linejoin="round"/>
<path d="M173.356 18.2441C173.356 18.2441 168.669 13.3741 163.07 17.1674C157.471 20.9608 159.102 27.1063 164.155 29.2597C169.207 31.4131 175.162 29.7981 173.182 31.9681C171.203 34.138 170.698 38.8259 173.721 39.7287C176.744 40.6314 176.247 44.0603 176.247 45.5263C176.247 46.9923 178.732 46.7935 179.32 45.5263C179.908 44.2591 181.299 40.8385 184.728 42.2796C188.157 43.7208 187.983 51.6636 186.716 53.6514C185.449 55.6391 184.19 55.4569 184.19 55.4569C184.19 55.4569 186.178 56.1775 184.91 58.5214L183.651 60.8736C183.651 60.8736 186.534 64.3025 193.756 63.0353C200.978 61.7681 202.601 58.5214 201.516 55.8213C200.431 53.1213 197.905 52.7486 200.614 48.7813C203.322 44.814 210.006 40.1096 209.459 31.0901C209.103 25.1351 195.023 19.4948 195.023 19.4948C195.023 19.4948 198.27 14.0781 190.882 10.6492C183.494 7.22029 175.005 11.1958 175.543 14.7904C176.081 18.3849 173.356 18.2441 173.356 18.2441Z" fill="black" stroke="black" stroke-linecap="round" stroke-linejoin="round"/>
<path d="M165.728 37.815C165.728 37.815 163.434 37.2021 163.244 38.2871C163.053 39.3721 163.244 44.7805 163.244 44.7805C164.051 45.2828 165.013 45.4769 165.952 45.3272C167.219 44.9627 166.49 40.4488 166.49 40.4488" stroke="black" stroke-linecap="round" stroke-linejoin="round"/>
<path d="M180.04 43.8783L163.417 41.1285L163.434 40.085L180.04 43.8783Z" fill="black" stroke="black" stroke-linecap="round" stroke-linejoin="round"/>
<path d="M1 324.013H379.505" stroke="black" stroke-linecap="round" stroke-linejoin="round"/>
</svg>
